<svg xmlns="http://www.w3.org/2000/svg" width="252.76324462890625" height="256.5424499511719" viewBox="-34.55366134643555 -23.39714813232422 252.76324462890625 256.5424499511719"><title>Neo4j Graph Visualization</title><desc>Created using Neo4j (http://www.neo4j.com/)</desc><g class="layer relationships"><g class="relationship" transform="translate(136.68803846355542 73.30542007613569) rotate(483.4287964488835)"><path class="outline" fill="#6DCE9E" stroke="none" d="M 4.700219608894081,1.7770581386571378 L 4.959038653996602,0.8111323123680696 A 176.89728832350377 176.89728832350377 0 0 0 35.96670486753442,6.220510618279718 L 35.88317209452461,7.217015648790493 A 177.89728832350377 177.89728832350377 0 0 1 4.700219608894081,1.7770581386571378 Z M 59.72596182190814,7.611839726960142 L 59.6754690009807,6.613115302989854 A 176.89728832350377 176.89728832350377 0 0 0 90.84523808254026,2.233362676540731 L 90.16515170196061,-0.6885343981266954 L 97.77634565352753,1.1334773009661063 L 91.75201992331313,6.129225442763966 L 91.07193354273348,3.20732836809654 A 177.89728832350377 177.89728832350377 0 0 1 59.72596182190814,7.611839726960142"/><text text-anchor="middle" pointer-events="none" font-size="8px" fill="#000000" x="47.80622264156744" y="10.314443638834035" transform="rotate(180 47.80622264156744 7.314443638834035)" font-family="sans-serif">2791</text></g><g class="relationship" transform="translate(62.70917709697576 58.91815669607699) rotate(460.7980481634463)"><path class="outline" fill="#6DCE9E" stroke="none" d="M 4.700219608894081,1.7770581386571378 L 4.959038653996602,0.8111323123680696 A 121.29545237115968 121.29545237115968 0 0 0 21.827667967982748,4.071364529654588 L 21.707919506189228,5.064168793292737 A 122.29545237115968 122.29545237115968 0 0 1 4.700219608894081,1.7770581386571378 Z M 45.558542133464414,5.597188902764387 L 45.48326598751627,4.6000261769010535 A 121.29545237115968 121.29545237115968 0 0 0 62.48070214893815,2.0966418712675017 L 61.834476181858804,-0.8329301110316818 L 69.4240744354828,1.0770432784655646 L 63.342336771710606,6.002737847666413 L 62.69611080463126,3.07316586536723 A 122.29545237115968 122.29545237115968 0 0 1 45.558542133464414,5.597188902764387"/><text text-anchor="middle" pointer-events="none" font-size="8px" fill="#000000" x="33.631373855368224" y="8.413770944831612" transform="rotate(180 33.631373855368224 5.413770944831612)" font-family="sans-serif">1895</text></g><g class="relationship" transform="translate(102.92582556755926 50.78192127597754) rotate(439.40182231930305)"><path class="outline" fill="#6DCE9E" stroke="none" d="M 4.700219608894081,-1.7770581386571378 L 4.959038653996602,-0.8111323123680696 A 164.32395568992436 164.32395568992436 0 0 1 32.755921121423036,-5.748509256438211 L 32.666261115553226,-6.744481687455988 A 165.32395568992436 165.32395568992436 0 0 0 4.700219608894081,-1.7770581386571378 Z M 56.51090903491198,-7.163995422412029 L 56.456339199317796,-6.16548546600535 A 164.32395568992436 164.32395568992436 0 0 1 84.4096976775611,-2.2089572173285505 L 83.73565433002696,0.7143398195195645 L 91.34306465479573,-1.1234055792235802 L 85.30842214093994,-6.106686599792704 L 84.6343787934058,-3.1833895629445896 A 165.32395568992436 165.32395568992436 0 0 0 56.51090903491198,-7.163995422412029"/><text text-anchor="middle" pointer-events="none" font-size="8px" fill="#000000" x="44.589806191361724" y="-3.8848318067366847" font-family="sans-serif">1732</text></g><g class="relationship" transform="translate(143.73899352805452 114.20264011237303) rotate(486.57729762426516)"><path class="outline" fill="#6DCE9E" stroke="none" d="M 4.700219608894081,-1.7770581386571378 L 4.959038653996602,-0.8111323123680696 A 49.856847590160115 49.856847590160115 0 0 1 6.839982676377554,-1.2761518764453186 L 6.618890525639532,-2.2514047979390384 A 50.856847590160115 50.856847590160115 0 0 0 4.700219608894081,-1.7770581386571378 Z M 25.132626257908104,-2.987702259903145 L 24.989682165553255,-1.9979714952702352 A 49.856847590160115 49.856847590160115 0 0 1 26.901615039470087,-1.6837959138808718 L 26.357737409580572,1.2664917201822488 L 33.87626579059896,-0.9064627164825241 L 27.62678521265611,-5.617512759298366 L 27.082907582766595,-2.667225125235245 A 50.856847590160115 50.856847590160115 0 0 0 25.132626257908104,-2.987702259903145"/><text text-anchor="middle" pointer-events="none" font-size="8px" fill="#000000" x="15.861813613944927" y="0.029813819323415203" transform="rotate(180 15.861813613944927 -2.970186180676585)" font-family="sans-serif">1…</text></g><g class="relationship" transform="translate(91.88478375552926 103.19458169073658) rotate(191.83546713265122)"><path class="outline" fill="#6DCE9E" stroke="none" d="M 4.700219608894081,-1.7770581386571378 L 4.959038653996602,-0.8111323123680696 A 79.77639654900773 79.77639654900773 0 0 1 13.63837112208129,-2.6265746527052585 L 13.488347821629292,-3.615257114025127 A 80.77639654900773 80.77639654900773 0 0 0 4.700219608894081,-1.7770581386571378 Z M 32.90063731509006,-4.199458579762492 L 32.81033930482745,-3.20354378956074 A 79.77639654900773 79.77639654900773 0 0 1 41.583135183625544,-1.9133130150164481 L 40.98233921724167,1.0259120880977841 L 48.54145975195607,-1.0013266106397831 L 42.384196472137376,-5.8322798191687575 L 41.783400505753505,-2.8930547160545252 A 80.77639654900773 80.77639654900773 0 0 0 32.90063731509006,-4.199458579762492"/><text text-anchor="middle" pointer-events="none" font-size="8px" fill="#000000" x="23.191911616634034" y="-0.9931196688084043" transform="rotate(180 23.191911616634034 -3.9931196688084043)" font-family="sans-serif">956</text></g><g class="relationship" transform="translate(136.68803846355542 73.30542007613569) rotate(440.2179872074675)"><path class="outline" fill="#6DCE9E" stroke="none" d="M 4.700219608894081,-1.7770581386571378 L 4.959038653996602,-0.8111323123680696 A 55.473271802712055 55.473271802712055 0 0 1 9.898285878179053,-1.8959697902870403 L 9.728505158447868,-2.881451655775983 A 56.473271802712055 56.473271802712055 0 0 0 4.700219608894081,-1.7770581386571378 Z M 24.70514601010053,-3.443667106383252 L 24.609727984060918,-2.4482298153866253 A 55.473271802712055 55.473271802712055 0 0 1 29.616407765995948,-1.7367573589593817 L 29.05939195240163,1.2110780135480215 L 36.587526270778945,-0.928359689323869 L 30.359095517455042,-5.667204522302585 L 29.802079703860723,-2.7193691497951824 A 56.473271802712055 56.473271802712055 0 0 0 24.70514601010053,-3.443667106383252"/><text text-anchor="middle" pointer-events="none" font-size="8px" fill="#000000" x="17.216848808935925" y="-0.16194070826090723" font-family="sans-serif">23</text></g><g class="relationship" transform="translate(136.68803846355542 73.30542007613569) rotate(506.29194149117006)"><path class="outline" fill="#6DCE9E" stroke="none" d="M 4.700219608894081,1.7770581386571378 L 4.959038653996602,0.8111323123680696 A 80.61713561824106 80.61713561824106 0 0 0 16.036511128159766,2.9617185664299654 L 15.91510049367878,3.9543209328561915 A 81.61713561824106 81.61713561824106 0 0 1 4.700219608894081,1.7770581386571378 Z M 30.877629236026504,4.401505109059116 L 30.815714045250232,3.4034236949695043 A 80.61713561824106 80.61713561824106 0 0 0 42.001848895841526,1.9182285036260152 L 41.39983444600398,-1.020747270718986 L 48.95979477761945,1.003357416395911 L 42.80453482895825,5.83686286941935 L 42.202520379120706,2.8978870950743487 A 81.61713561824106 81.61713561824106 0 0 1 30.877629236026504,4.401505109059116"/><text text-anchor="middle" pointer-events="none" font-size="8px" fill="#000000" x="23.401027892726827" y="7.021890754726627" transform="rotate(180 23.401027892726827 4.021890754726627)" font-family="sans-serif">34</text></g><g class="relationship" transform="translate(136.68803846355542 73.30542007613569) rotate(462.5705536176803)"><path class="outline" fill="#6DCE9E" stroke="none" d="M 4.700219608894081,-1.7770581386571378 L 4.959038653996602,-0.8111323123680696 A 120.33477141820673 120.33477141820673 0 0 1 23.786719067472,-4.279394579711067 L 23.684360870647843,-5.274142185660892 A 121.33477141820673 121.33477141820673 0 0 0 4.700219608894081,-1.7770581386571378 Z M 43.08642574601586,-5.710363768083198 L 43.02887870999878,-4.712020971922655 A 120.33477141820673 120.33477141820673 0 0 1 61.99341093531418,-2.0934506784201856 L 61.34797550517773,0.8362955743335534 L 68.93705809676231,-1.0757257168940917 L 62.85399150882945,-5.999779015425171 L 62.208556078693,-3.070032762671432 A 121.33477141820673 121.33477141820673 0 0 0 43.08642574601586,-5.710363768083198"/><text text-anchor="middle" pointer-events="none" font-size="8px" fill="#000000" x="33.38789663851488" y="-2.3809109970786295" transform="rotate(180 33.38789663851488 -5.3809109970786295)" font-family="sans-serif">143</text></g><g class="relationship" transform="translate(136.68803846355542 73.30542007613569) rotate(528.9700246130401)"><path class="outline" fill="#6DCE9E" stroke="none" d="M 4.700219608894081,-1.7770581386571378 L 4.959038653996602,-0.8111323123680696 A 169.64368337013133 169.64368337013133 0 0 1 38.53755494012904,-6.276891167067561 L 38.476671448057814,-7.275036046528072 A 170.64368337013133 170.64368337013133 0 0 0 4.700219608894081,-1.7770581386571378 Z M 53.41192374118615,-7.531039976989689 L 53.385284202822476,-6.531394872467189 A 169.64368337013133 169.64368337013133 0 0 1 87.13139601407356,-2.2196419275122845 L 86.45470695977396,0.7030438106044747 L 94.06377757872927,-1.1278150904993351 L 88.03364808647304,-6.116556245001297 L 87.35695903217344,-3.193870506884538 A 170.64368337013133 170.64368337013133 0 0 0 53.41192374118615,-7.531039976989689"/><text text-anchor="middle" pointer-events="none" font-size="8px" fill="#000000" x="45.95006426050956" y="-4.06661110703979" transform="rotate(180 45.95006426050956 -7.06661110703979)" font-family="sans-serif">69</text></g><g class="relationship" transform="translate(136.68803846355542 73.30542007613569) rotate(506.30826786276975)"><path class="outline" fill="#6DCE9E" stroke="none" d="M 4.700219608894081,1.7770581386571378 L 4.959038653996602,0.8111323123680696 A 182.7537037440257 182.7537037440257 0 0 0 39.676387599524,6.604629828146074 L 39.60753651804838,7.602256776749414 A 183.7537037440257 183.7537037440257 0 0 1 4.700219608894081,1.7770581386571378 Z M 58.99645445581927,7.9147620667840215 L 58.959789743366834,6.915434443398794 A 182.7537037440257 182.7537037440257 0 0 0 93.84581307117796,2.2437850941600024 L 93.16314616254799,-0.6775101479991332 L 100.77594645432093,1.137778181049935 L 94.75603561601791,6.13884541703885 L 94.07336870738794,3.2175501748797144 A 183.7537037440257 183.7537037440257 0 0 1 58.99645445581927,7.9147620667840215"/><text text-anchor="middle" pointer-events="none" font-size="8px" fill="#000000" x="49.30592811489359" y="10.514515469590037" transform="rotate(180 49.30592811489359 7.514515469590037)" font-family="sans-serif">161</text></g><g class="relationship" transform="translate(136.68803846355542 73.30542007613569) rotate(191.0053951649569)"><path class="outline" fill="#6DCE9E" stroke="none" d="M 4.700219608894081,1.7770581386571378 L 4.959038653996602,0.8111323123680696 A 123.38315136265243 123.38315136265243 0 0 0 26.76377764740141,4.598829946540761 L 26.68168239928893,5.595454434619057 A 124.38315136265243 124.38315136265243 0 0 1 4.700219608894081,1.7770581386571378 Z M 41.627601829860524,5.9251661082315366 L 41.589536756684836,4.925890845751709 A 123.38315136265243 123.38315136265243 0 0 0 63.540097504849584,2.1034488570562972 L 62.89218531086349,-0.8257506562722381 L 70.48288173494718,1.0798536566434993 L 64.40398043016438,6.00904820816101 L 63.75606823617828,3.0798486948324753 A 124.38315136265243 124.38315136265243 0 0 1 41.627601829860524,5.9251661082315366"/><text text-anchor="middle" pointer-events="none" font-size="8px" fill="#000000" x="34.16071162073825" y="8.485177913782607" transform="rotate(180 34.16071162073825 5.485177913782607)" font-family="sans-serif">66</text></g><g class="relationship" transform="translate(136.68803846355542 73.30542007613569) rotate(213.70810610825907)"><path class="outline" fill="#6DCE9E" stroke="none" d="M 4.700219608894081,1.7770581386571378 L 4.959038653996602,0.8111323123680696 A 53.58087594451015 53.58087594451015 0 0 0 9.445775236028524,1.809244158465951 L 9.270693839908796,2.793798120792424 A 54.58087594451015 54.58087594451015 0 0 1 4.700219608894081,1.7770581386571378 Z M 24.24841073833315,3.366918984160442 L 24.149078859853706,2.3718646248826474 A 53.58087594451015 53.58087594451015 0 0 0 28.69896929142194,1.7195384222905634 L 28.14622471703679,-1.2291008292096568 L 35.67125164065331,0.9212409573085822 L 29.435962057268807,5.6510574242908564 L 28.88321748288366,2.7024181727906367 A 54.58087594451015 54.58087594451015 0 0 1 24.24841073833315,3.366918984160442"/><text text-anchor="middle" pointer-events="none" font-size="8px" fill="#000000" x="16.758903753449072" y="6.097307130539342" transform="rotate(180 16.758903753449072 3.097307130539342)" font-family="sans-serif">81</text></g><g class="relationship" transform="translate(136.68803846355542 73.30542007613569) rotate(236.96304665786332)"><path class="outline" fill="#6DCE9E" stroke="none" d="M 1.777058138657138 4.700219608894081 L 12.129819942757969 43.33725266045681 A 12.557713659400521 12.557713659400521 0 1 1 -12.129819942757969 43.33725266045681 L -3.588791454374783 11.461700392917558 L 0.27491185078149 12.496976573327641 L -1.294095225512604 4.8296291314453415 L -6.486568933241988 10.685243257609997 L -2.622865628085715 11.720519438020078 L -11.1638941164689 43.59607170555933 A 11.557713659400521 11.557713659400521 0 1 0 11.1638941164689 43.59607170555933 L 0.8111323123680697 4.959038653996601 Z"/><text text-anchor="middle" pointer-events="none" font-size="8px" fill="#000000" x="0" y="68.14514177785426" transform="rotate(180 0 65.14514177785426)" font-family="sans-serif">105</text></g><g class="relationship" transform="translate(80.1402345494767 158.9709495041593) rotate(260.1172008250099)"><path class="outline" fill="#6DCE9E" stroke="none" d="M 4.700219608894081,-1.7770581386571378 L 4.959038653996602,-0.8111323123680696 A 174.77471505013747 174.77471505013747 0 0 1 39.849214938991295,-6.460013880645761 L 39.79002532126324,-7.458260638292984 A 175.77471505013747 175.77471505013747 0 0 0 4.700219608894081,-1.7770581386571378 Z M 54.72437682716462,-7.708045809873823 L 54.69860341991129,-6.7083779993094765 A 174.77471505013747 174.77471505013747 0 0 1 89.75817294111262,-2.229444068284908 L 89.07905681006773,0.692678667083102 L 96.6896453454788,-1.131860218408161 L 90.66366111583915,-6.1256077154422535 L 89.98454498479425,-3.203484980074244 A 175.77471505013747 175.77471505013747 0 0 0 54.72437682716462,-7.708045809873823"/><text text-anchor="middle" pointer-events="none" font-size="8px" fill="#000000" x="47.26290829490386" y="-4.241925442763403" transform="rotate(180 47.26290829490386 -7.241925442763403)" font-family="sans-serif">30</text></g><g class="relationship" transform="translate(80.1402345494767 158.9709495041593) rotate(281.89077874353325)"><path class="outline" fill="#6DCE9E" stroke="none" d="M 5 0.5 L 17.550507750931583 0.5 L 17.550507750931583 -0.5 L 5 -0.5 Z M 32.44894525093159 0.5 L 44.999453001863166 0.5 L 44.999453001863166 3.5 L 51.999453001863166 0 L 44.999453001863166 -3.5 L 44.999453001863166 -0.5 L 32.44894525093159 -0.5 Z"/><text text-anchor="middle" pointer-events="none" font-size="8px" fill="#000000" x="24.999726500931583" y="3" font-family="sans-serif">48</text></g><g class="relationship" transform="translate(80.1402345494767 158.9709495041593) rotate(341.4106966775746)"><path class="outline" fill="#6DCE9E" stroke="none" d="M 4.700219608894081,-1.7770581386571378 L 4.959038653996602,-0.8111323123680696 A 57.966047914556135 57.966047914556135 0 0 1 12.679240864541596,-2.3269916792464755 L 12.553606717983907,-3.319068320045325 A 58.966047914556135 58.966047914556135 0 0 0 4.700219608894081,-1.7770581386571378 Z M 23.071116076778566,-3.7042400236164283 L 23.018384710795296,-2.7056312899066057 A 57.966047914556135 57.966047914556135 0 0 1 30.82878523820277,-1.7585328824906354 L 30.266368281783098,1.188276776637629 L 37.79841060223866,-0.9373615940327842 L 31.578674513428997,-5.687612427994988 L 31.016257557009325,-2.740802768866723 A 58.966047914556135 58.966047914556135 0 0 0 23.071116076778566,-3.7042400236164283"/><text text-anchor="middle" pointer-events="none" font-size="8px" fill="#000000" x="17.822049501917846" y="-0.24711051717492438" font-family="sans-serif">9</text></g><g class="relationship" transform="translate(80.1402345494767 158.9709495041593) rotate(220.79922258611975)"><path class="outline" fill="#6DCE9E" stroke="none" d="M 4.700219608894081,1.7770581386571378 L 4.959038653996602,0.8111323123680696 A 55.29905067542045 55.29905067542045 0 0 0 12.035946352642542,2.2199953517950135 L 11.905102518908189,3.21139834310263 A 56.29905067542045 56.29905067542045 0 0 1 4.700219608894081,1.7770581386571378 Z M 22.425119812903628,3.6070057942782086 L 22.36910406076954,2.608575909152144 A 55.29905067542045 55.29905067542045 0 0 0 29.531835926749423,1.7351974945495146 L 28.97520703403544,-1.2127109632890263 L 36.50306047715835,0.9277148211899748 L 30.274007783701403,5.665742105000902 L 29.71737889098742,2.7178336471623616 A 56.29905067542045 56.29905067542045 0 0 1 22.425119812903628,3.6070057942782086"/><text text-anchor="middle" pointer-events="none" font-size="8px" fill="#000000" x="17.174633281109642" y="6.155989404669519" transform="rotate(180 17.174633281109642 3.155989404669519)" font-family="sans-serif">1</text></g><g class="relationship" transform="translate(80.1402345494767 158.9709495041593) rotate(238.7108130170251)"><path class="outline" fill="#6DCE9E" stroke="none" d="M 4.700219608894081,-1.7770581386571378 L 4.959038653996602,-0.8111323123680696 A 128.76497079028022 128.76497079028022 0 0 1 28.127257893952894,-4.797347175724738 L 28.048365261272664,-5.794230294504857 A 129.76497079028022 129.76497079028022 0 0 0 4.700219608894081,-1.7770581386571378 Z M 42.9927478977364,-6.113299317452643 L 42.956475532147444,-5.1139573762260255 A 128.76497079028022 128.76497079028022 0 0 1 66.27371961232923,-2.1202272292766127 L 65.62165125855337,0.8080498856843397 L 73.21504427286743,-1.086780589626427 L 67.14314408403037,-6.0245967158912155 L 66.49107573025451,-3.096319600930263 A 129.76497079028022 129.76497079028022 0 0 0 42.9927478977364,-6.113299317452643"/><text text-anchor="middle" pointer-events="none" font-size="8px" fill="#000000" x="35.52663130205572" y="-2.6692402307737524" transform="rotate(180 35.52663130205572 -5.669240230773752)" font-family="sans-serif">88</text></g><g class="relationship" transform="translate(80.1402345494767 158.9709495041593) rotate(324.8575970748841)"><path class="outline" fill="#6DCE9E" stroke="none" d="M 4.700219608894081,-1.7770581386571378 L 4.959038653996602,-0.8111323123680696 A 128.13434139050415 128.13434139050415 0 0 1 25.760017138840695,-4.579425478129394 L 25.663535358355244,-5.574760228871256 A 129.13434139050415 129.13434139050415 0 0 0 4.700219608894081,-1.7770581386571378 Z M 45.06363798154565,-5.990529493723713 L 45.00988782206616,-4.9919750784032715 A 128.13434139050415 128.13434139050415 0 0 1 65.9532119197426,-2.1183162521409775 L 65.30161691999,0.810066229075812 L 72.89470354254054,-1.085991666254359 L 66.82200525274608,-6.022826227096697 L 66.17041025299348,-3.0944437458799072 A 129.13434139050415 129.13434139050415 0 0 0 45.06363798154565,-5.990529493723713"/><text text-anchor="middle" pointer-events="none" font-size="8px" fill="#000000" x="35.36647928281723" y="-2.647673397053566" font-family="sans-serif">184</text></g><g class="relationship" transform="translate(80.1402345494767 158.9709495041593) rotate(281.8931984037089)"><path class="outline" fill="#6DCE9E" stroke="none" d="M 4.700219608894081,-1.7770581386571378 L 4.959038653996602,-0.8111323123680696 A 192.35066107331582 192.35066107331582 0 0 1 42.13328384801299,-6.951553142201959 L 42.067727695726035,-7.949402023995873 A 193.35066107331582 193.35066107331582 0 0 0 4.700219608894081,-1.7770581386571378 Z M 61.45510085367872,-8.248784752094963 L 61.4203864765021,-7.249387477725435 A 192.35066107331582 192.35066107331582 0 0 1 98.76650414597493,-2.259721283459812 L 98.07989172433064,0.6606491352445927 L 105.69513719322593,-1.1443540360738347 L 99.68198737483401,-6.153548508399019 L 98.99537495318971,-3.233178089694614 A 193.35066107331582 193.35066107331582 0 0 0 61.45510085367872,-8.248784752094963"/><text text-anchor="middle" pointer-events="none" font-size="8px" fill="#000000" x="51.76537921214826" y="-4.842332678102821" font-family="sans-serif">397</text></g><g class="relationship" transform="translate(80.1402345494767 158.9709495041593) rotate(303.4287964488835)"><path class="outline" fill="#6DCE9E" stroke="none" d="M 4.700219608894081,1.7770581386571378 L 4.959038653996602,0.8111323123680696 A 176.89728832350377 176.89728832350377 0 0 0 38.17839500842306,6.39194930074737 L 38.107364915142554,7.389423473770677 A 177.89728832350377 177.89728832350377 0 0 1 4.700219608894081,1.7770581386571378 Z M 57.49728008556846,7.710510287456685 L 57.45931517755831,6.711231214444666 A 176.89728832350377 176.89728832350377 0 0 0 90.84523808254026,2.233362676540731 L 90.16515170196061,-0.6885343981266954 L 97.77634565352753,1.1334773009661063 L 91.75201992331313,6.129225442763966 L 91.07193354273348,3.20732836809654 A 177.89728832350377 177.89728832350377 0 0 1 57.49728008556846,7.710510287456685"/><text text-anchor="middle" pointer-events="none" font-size="8px" fill="#000000" x="47.80622264156744" y="10.314443638834035" font-family="sans-serif">195</text></g><g class="relationship" transform="translate(80.1402345494767 158.9709495041593) rotate(371.1049596318472)"><path class="outline" fill="#6DCE9E" stroke="none" d="M 1.777058138657138 4.700219608894081 L 12.129819942757969 43.33725266045681 A 12.557713659400521 12.557713659400521 0 1 1 -12.129819942757969 43.33725266045681 L -3.588791454374783 11.461700392917558 L 0.27491185078149 12.496976573327641 L -1.294095225512604 4.8296291314453415 L -6.486568933241988 10.685243257609997 L -2.622865628085715 11.720519438020078 L -11.1638941164689 43.59607170555933 A 11.557713659400521 11.557713659400521 0 1 0 11.1638941164689 43.59607170555933 L 0.8111323123680697 4.959038653996601 Z"/><text text-anchor="middle" pointer-events="none" font-size="8px" fill="#000000" x="0" y="68.14514177785426" font-family="sans-serif">98</text></g><g class="relationship" transform="translate(62.70917709697576 58.91815669607699) rotate(440.1172008250099)"><path class="outline" fill="#6DCE9E" stroke="none" d="M 4.700219608894081,-1.7770581386571378 L 4.959038653996602,-0.8111323123680696 A 174.77471505013747 174.77471505013747 0 0 1 42.06436285966292,-6.577256139791643 L 42.01784754622446,-7.576173716779721 A 175.77471505013747 175.77471505013747 0 0 0 4.700219608894081,-1.7770581386571378 Z M 52.49385747484507,-7.75139069466249 L 52.48077371610963,-6.7514762906971555 A 174.77471505013747 174.77471505013747 0 0 1 89.75817294111262,-2.229444068284908 L 89.07905681006773,0.692678667083102 L 96.6896453454788,-1.131860218408161 L 90.66366111583915,-6.1256077154422535 L 89.98454498479425,-3.203484980074244 A 175.77471505013747 175.77471505013747 0 0 0 52.49385747484507,-7.75139069466249"/><text text-anchor="middle" pointer-events="none" font-size="8px" fill="#000000" x="47.26290829490386" y="-4.241925442763403" font-family="sans-serif">1</text></g><g class="relationship" transform="translate(62.70917709697576 58.91815669607699) rotate(484.76915678731996)"><path class="outline" fill="#6DCE9E" stroke="none" d="M 4.700219608894081,-1.7770581386571378 L 4.959038653996602,-0.8111323123680696 A 53.521371320955566 53.521371320955566 0 0 1 11.608822538316785,-2.147976690442576 L 11.474248887534282,-3.1388802843986525 A 54.521371320955566 54.521371320955566 0 0 0 4.700219608894081,-1.7770581386571378 Z M 21.996039209801292,-3.5417399678838564 L 21.9376281636229,-2.543447350619587 A 53.521371320955566 53.521371320955566 0 0 1 28.670164366209086,-1.7189869936464686 L 28.117556580700874,1.2296778966718107 L 35.64248374120311,-0.9210129758470202 L 29.4069747468867,-5.650540180737508 L 28.85436696137849,-2.7018752904192285 A 54.521371320955566 54.521371320955566 0 0 0 21.996039209801292,-3.5417399678838564"/><text text-anchor="middle" pointer-events="none" font-size="8px" fill="#000000" x="16.74452597992345" y="-0.09527514861260755" transform="rotate(180 16.74452597992345 -3.0952751486126076)" font-family="sans-serif">2</text></g><g class="relationship" transform="translate(62.70917709697576 58.91815669607699) rotate(416.6174252812564)"><path class="outline" fill="#6DCE9E" stroke="none" d="M 5 0.5 L 17.787736023900244 0.5 L 17.787736023900244 -0.5 L 5 -0.5 Z M 28.236954773900244 0.5 L 41.02469079780049 0.5 L 41.02469079780049 3.5 L 48.02469079780049 0 L 41.02469079780049 -3.5 L 41.02469079780049 -0.5 L 28.236954773900244 -0.5 Z"/><text text-anchor="middle" pointer-events="none" font-size="8px" fill="#000000" x="23.012345398900244" y="3" font-family="sans-serif">1</text></g><g class="relationship" transform="translate(62.70917709697576 58.91815669607699) rotate(348.5628542927525)"><path class="outline" fill="#6DCE9E" stroke="none" d="M 4.700219608894081,1.7770581386571378 L 4.959038653996602,0.8111323123680696 A 54.50356730608565 54.50356730608565 0 0 0 11.84464425275846,2.1878411975900747 L 11.712158325635045,3.179026084033694 A 55.50356730608565 55.50356730608565 0 0 1 4.700219608894081,1.7770581386571378 Z M 22.23295858052699,3.577848616418784 L 22.175892722683635,2.5794782002562258 A 54.50356730608565 54.50356730608565 0 0 0 29.14596405230086,1.7280103638714008 L 28.591117939374783,-1.2202341631261175 L 36.11767563411608,0.9247435215434663 L 29.885758869535636,5.659003066534758 L 29.330912756609557,2.71075853953724 A 55.50356730608565 55.50356730608565 0 0 1 22.23295858052699,3.577848616418784"/><text text-anchor="middle" pointer-events="none" font-size="8px" fill="#000000" x="16.982021010915425" y="6.128818352320643" font-family="sans-serif">2</text></g><g class="relationship" transform="translate(62.70917709697576 58.91815669607699) rotate(416.1782261614361)"><path class="outline" fill="#6DCE9E" stroke="none" d="M 4.700219608894081,-1.7770581386571378 L 4.959038653996602,-0.8111323123680696 A 179.62948213303252 179.62948213303252 0 0 1 41.09101926816716,-6.6328828706705565 L 41.03334749680343,-7.631218468947907 A 180.62948213303252 180.62948213303252 0 0 0 4.700219608894081,-1.7770581386571378 Z M 55.96688576301095,-7.8753884735524196 L 55.941882557455855,-6.875701102564875 A 179.62948213303252 179.62948213303252 0 0 1 92.24487504938708,-2.2382946294727546 L 91.56356753450075,0.683317950962818 L 99.17552232288448,-1.1355125248105638 L 93.15328506923552,-6.133778070053518 L 92.4719775543492,-3.212165489617945 A 180.62948213303252 180.62948213303252 0 0 0 55.96688576301095,-7.8753884735524196"/><text text-anchor="middle" pointer-events="none" font-size="8px" fill="#000000" x="48.50576599986599" y="-4.407785672713089" font-family="sans-serif">35</text></g><g class="relationship" transform="translate(62.70917709697576 58.91815669607699) rotate(394.3046757952957)"><path class="outline" fill="#6DCE9E" stroke="none" d="M 4.700219608894081,-1.7770581386571378 L 4.959038653996602,-0.8111323123680696 A 167.99696134237024 167.99696134237024 0 0 1 38.11678598613647,-6.218024477425217 L 38.055338054577874,-7.2161347677775325 A 168.99696134237024 168.99696134237024 0 0 0 4.700219608894081,-1.7770581386571378 Z M 52.990888923346816,-7.474199813620089 L 52.96395922521235,-6.474562483705711 A 167.99696134237024 167.99696134237024 0 0 1 86.28870505453918,-2.2163931073952403 L 85.61282044954353,0.7064787681288798 L 93.22138686492806,-1.126474341659433 L 87.1898845278667,-6.113555608094067 L 86.51399992287105,-3.190683732569947 A 168.99696134237024 168.99696134237024 0 0 0 52.990888923346816,-7.474199813620089"/><text text-anchor="middle" pointer-events="none" font-size="8px" fill="#000000" x="45.52889877110558" y="-4.010343271977831" font-family="sans-serif">15</text></g><g class="relationship" transform="translate(62.70917709697576 58.91815669607699) rotate(371.0053951649569)"><path class="outline" fill="#6DCE9E" stroke="none" d="M 4.700219608894081,1.7770581386571378 L 4.959038653996602,0.8111323123680696 A 123.38315136265243 123.38315136265243 0 0 0 28.97344391037555,4.760887212723716 L 28.909257641232813,5.758825148095212 A 124.38315136265243 124.38315136265243 0 0 1 4.700219608894081,1.7770581386571378 Z M 39.39498915315491,5.990143676333432 L 39.37487355828272,4.990346015382514 A 123.38315136265243 123.38315136265243 0 0 0 63.540097504849584,2.1034488570562972 L 62.89218531086349,-0.8257506562722381 L 70.48288173494718,1.0798536566434993 L 64.40398043016438,6.00904820816101 L 63.75606823617828,3.0798486948324753 A 124.38315136265243 124.38315136265243 0 0 1 39.39498915315491,5.990143676333432"/><text text-anchor="middle" pointer-events="none" font-size="8px" fill="#000000" x="34.16071162073825" y="8.485177913782607" font-family="sans-serif">5</text></g><g class="relationship" transform="translate(62.70917709697576 58.91815669607699) rotate(506.6660055400362)"><path class="outline" fill="#6DCE9E" stroke="none" d="M 1.777058138657138 4.700219608894081 L 12.129819942757969 43.33725266045681 A 12.557713659400521 12.557713659400521 0 1 1 -12.129819942757969 43.33725266045681 L -3.588791454374783 11.461700392917558 L 0.27491185078149 12.496976573327641 L -1.294095225512604 4.8296291314453415 L -6.486568933241988 10.685243257609997 L -2.622865628085715 11.720519438020078 L -11.1638941164689 43.59607170555933 A 11.557713659400521 11.557713659400521 0 1 0 11.1638941164689 43.59607170555933 L 0.8111323123680697 4.959038653996601 Z"/><text text-anchor="middle" pointer-events="none" font-size="8px" fill="#000000" x="0" y="68.14514177785426" transform="rotate(180 0 65.14514177785426)" font-family="sans-serif">30</text></g><g class="relationship" transform="translate(48.78797751787294 131.90914953644528) rotate(326.30826786276975)"><path class="outline" fill="#6DCE9E" stroke="none" d="M 4.700219608894081,1.7770581386571378 L 4.959038653996602,0.8111323123680696 A 182.7537037440257 182.7537037440257 0 0 0 41.890535289100875,6.743941062051107 L 41.833799681315895,7.74233030017885 A 183.7537037440257 183.7537037440257 0 0 1 4.700219608894081,1.7770581386571378 Z M 56.76683351348304,7.983016865762124 L 56.7423025479805,6.983317795175623 A 182.7537037440257 182.7537037440257 0 0 0 93.84581307117796,2.2437850941600024 L 93.16314616254799,-0.6775101479991332 L 100.77594645432093,1.137778181049935 L 94.75603561601791,6.13884541703885 L 94.07336870738794,3.2175501748797144 A 183.7537037440257 183.7537037440257 0 0 1 56.76683351348304,7.983016865762124"/><text text-anchor="middle" pointer-events="none" font-size="8px" fill="#000000" x="49.30592811489359" y="10.514515469590037" font-family="sans-serif">21</text></g><g class="relationship" transform="translate(48.78797751787294 131.90914953644528) rotate(400.79922258611975)"><path class="outline" fill="#6DCE9E" stroke="none" d="M 4.700219608894081,1.7770581386571378 L 4.959038653996602,0.8111323123680696 A 55.29905067542045 55.29905067542045 0 0 0 9.856553280039627,1.888038945815559 L 9.68629840676691,2.8734390057541006 A 56.29905067542045 56.29905067542045 0 0 1 4.700219608894081,1.7770581386571378 Z M 24.663039504404416,3.436642487932282 L 24.567273176289874,2.4412386450627324 A 55.29905067542045 55.29905067542045 0 0 0 29.531835926749423,1.7351974945495146 L 28.97520703403544,-1.2127109632890263 L 36.50306047715835,0.9277148211899748 L 30.274007783701403,5.665742105000902 L 29.71737889098742,2.7178336471623616 A 56.29905067542045 56.29905067542045 0 0 1 24.663039504404416,3.436642487932282"/><text text-anchor="middle" pointer-events="none" font-size="8px" fill="#000000" x="17.174633281109642" y="6.155989404669519" font-family="sans-serif">24</text></g><g class="relationship" transform="translate(48.78797751787294 131.90914953644528) rotate(370.60258835573757)"><path class="outline" fill="#6DCE9E" stroke="none" d="M 4.700219608894081,-1.7770581386571378 L 4.959038653996602,-0.8111323123680696 A 118.87664862938846 118.87664862938846 0 0 1 23.41837468131604,-4.222857945473564 L 23.314837066504072,-5.217483484216189 A 119.87664862938846 119.87664862938846 0 0 0 4.700219608894081,-1.7770581386571378 Z M 42.7172777928432,-5.657748332928065 L 42.65896202796715,-4.659450145227154 A 118.87664862938846 118.87664862938846 0 0 1 61.25405142810736,-2.0885342450321693 L 60.60983393749364,0.8414800595041343 L 68.19812105379435,-1.0736958176895368 L 62.11300808225899,-5.995219984413907 L 61.46879059164527,-3.065205679877604 A 119.87664862938846 119.87664862938846 0 0 0 42.7172777928432,-5.657748332928065"/><text text-anchor="middle" pointer-events="none" font-size="8px" fill="#000000" x="33.0184758846152" y="-2.331034770445143" font-family="sans-serif">107</text></g><g class="relationship" transform="translate(48.78797751787294 131.90914953644528) rotate(256.93488773661454)"><path class="outline" fill="#6DCE9E" stroke="none" d="M 4.700219608894081,-1.7770581386571378 L 4.959038653996602,-0.8111323123680696 A 53.878953196002094 53.878953196002094 0 0 1 9.51693402034785,-1.8229914243788343 L 9.342710073998834,-2.807697480274996 A 54.878953196002094 54.878953196002094 0 0 0 4.700219608894081,-1.7770581386571378 Z M 24.320259582747376,-3.379074960594785 L 24.22156379144659,-2.383957308867352 A 53.878953196002094 53.878953196002094 0 0 1 28.843302345680748,-1.7222914041458268 L 28.28987486325284,1.2262197492489695 L 35.81539961733992,-0.9223791373798451 L 29.581205655584625,-5.653639608672222 L 29.02777817315672,-2.7051284552774253 A 54.878953196002094 54.878953196002094 0 0 0 24.320259582747376,-3.379074960594785"/><text text-anchor="middle" pointer-events="none" font-size="8px" fill="#000000" x="16.830946925194517" y="-0.10748630622003219" transform="rotate(180 16.830946925194517 -3.107486306220032)" font-family="sans-serif">64</text></g><g class="relationship" transform="translate(48.78797751787294 131.90914953644528) rotate(326.32524726769077)"><path class="outline" fill="#6DCE9E" stroke="none" d="M 5 0.5 L 14.944125541786164 0.5 L 14.944125541786164 -0.5 L 5 -0.5 Z M 29.842563041786164 0.5 L 39.78668858357233 0.5 L 39.78668858357233 3.5 L 46.78668858357233 0 L 39.78668858357233 -3.5 L 39.78668858357233 -0.5 L 29.842563041786164 -0.5 Z"/><text text-anchor="middle" pointer-events="none" font-size="8px" fill="#000000" x="22.393344291786164" y="3" font-family="sans-serif">32</text></g><g class="relationship" transform="translate(48.78797751787294 131.90914953644528) rotate(280.7980481634463)"><path class="outline" fill="#6DCE9E" stroke="none" d="M 4.700219608894081,1.7770581386571378 L 4.959038653996602,0.8111323123680696 A 121.29545237115968 121.29545237115968 0 0 0 24.029503296174365,4.316562886166892 L 23.927907496209038,5.311388646503545 A 122.29545237115968 122.29545237115968 0 0 1 4.700219608894081,1.7770581386571378 Z M 43.32972620557834,5.7449856931731205 L 43.27267490679068,4.746614444935943 A 121.29545237115968 121.29545237115968 0 0 0 62.48070214893815,2.0966418712675017 L 61.834476181858804,-0.8329301110316818 L 69.4240744354828,1.0770432784655646 L 63.342336771710606,6.002737847666413 L 62.69611080463126,3.07316586536723 A 122.29545237115968 122.29545237115968 0 0 1 43.32972620557834,5.7449856931731205"/><text text-anchor="middle" pointer-events="none" font-size="8px" fill="#000000" x="33.631373855368224" y="8.413770944831612" font-family="sans-serif">337</text></g><g class="relationship" transform="translate(48.78797751787294 131.90914953644528) rotate(349.43678638677227)"><path class="outline" fill="#6DCE9E" stroke="none" d="M 4.700219608894081,-1.7770581386571378 L 4.959038653996602,-0.8111323123680696 A 165.05305888856307 165.05305888856307 0 0 1 35.4473866619107,-5.9814105925286185 L 35.37328608378611,-6.97866136556496 A 166.05305888856307 166.05305888856307 0 0 0 4.700219608894081,-1.7770581386571378 Z M 54.17088830288858,-7.308186835780276 L 54.13178649651679,-6.30895160384614 A 165.05305888856307 165.05305888856307 0 0 1 84.78261786376433,-2.2104545326584866 L 84.1082037505058,0.7127569895953689 L 91.71584710123308,-1.1240235220975476 L 85.68183668144238,-6.108069895663627 L 85.00742256818384,-3.1848583734097717 A 166.05305888856307 166.05305888856307 0 0 0 54.17088830288858,-7.308186835780276"/><text text-anchor="middle" pointer-events="none" font-size="8px" fill="#000000" x="44.77618359767198" y="-3.9097469310116253" font-family="sans-serif">118</text></g><g class="relationship" transform="translate(48.78797751787294 131.90914953644528) rotate(303.7159877811428)"><path class="outline" fill="#6DCE9E" stroke="none" d="M 4.700219608894081,-1.7770581386571378 L 4.959038653996602,-0.8111323123680696 A 166.9004537411945 166.9004537411945 0 0 1 35.6239150189766,-6.026958708377265 L 35.54882750771718,-7.0241356563924455 A 167.9004537411945 167.9004537411945 0 0 0 4.700219608894081,-1.7770581386571378 Z M 54.94054763112799,-7.360998050246536 L 54.90013980159874,-6.361814780114003 A 166.9004537411945 166.9004537411945 0 0 1 85.72767274630492,-2.214201006403823 L 85.05233093891663,0.7087963324922484 L 92.6605568382938,-1.125569678980481 L 86.6281284894893,-6.111530791598584 L 85.952786682101,-3.188533452702513 A 167.9004537411945 167.9004537411945 0 0 0 54.94054763112799,-7.360998050246536"/><text text-anchor="middle" pointer-events="none" font-size="8px" fill="#000000" x="45.24850393523818" y="-3.9728750766924747" font-family="sans-serif">124</text></g><g class="relationship" transform="translate(48.78797751787294 131.90914953644528) rotate(418.86705516136715)"><path class="outline" fill="#6DCE9E" stroke="none" d="M 1.777058138657138 4.700219608894081 L 12.129819942757969 43.33725266045681 A 12.557713659400521 12.557713659400521 0 1 1 -12.129819942757969 43.33725266045681 L -3.588791454374783 11.461700392917558 L 0.27491185078149 12.496976573327641 L -1.294095225512604 4.8296291314453415 L -6.486568933241988 10.685243257609997 L -2.622865628085715 11.720519438020078 L -11.1638941164689 43.59607170555933 A 11.557713659400521 11.557713659400521 0 1 0 11.1638941164689 43.59607170555933 L 0.8111323123680697 4.959038653996601 Z"/><text text-anchor="middle" pointer-events="none" font-size="8px" fill="#000000" x="0" y="68.14514177785426" font-family="sans-serif">64</text></g><g class="relationship" transform="translate(102.92582556755926 50.78192127597754) rotate(417.2374825599469)"><path class="outline" fill="#6DCE9E" stroke="none" d="M 4.700219608894081,-1.7770581386571378 L 4.959038653996602,-0.8111323123680696 A 123.48827800320217 123.48827800320217 0 0 1 29.00007400901557,-4.76464916701228 L 28.93593769610238,-5.762590314257906 A 124.48827800320217 124.48827800320217 0 0 0 4.700219608894081,-1.7770581386571378 Z M 39.42164204572767,-5.993758210815457 L 39.401547903229186,-4.9939601184801745 A 123.48827800320217 123.48827800320217 0 0 1 63.593459283867745,-2.103787076505336 L 62.9454633072366,0.8253939036100699 L 70.53621423357555,-1.0799932943852333 L 64.45745391937594,-6.00936171665921 L 63.8094579427448,-3.080180736543805 A 124.48827800320217 124.48827800320217 0 0 0 39.42164204572767,-5.993758210815457"/><text text-anchor="middle" pointer-events="none" font-size="8px" fill="#000000" x="34.18737460138664" y="-2.4887735412988548" font-family="sans-serif">6</text></g><g class="relationship" transform="translate(102.92582556755926 50.78192127597754) rotate(461.8931984037089)"><path class="outline" fill="#6DCE9E" stroke="none" d="M 4.700219608894081,-1.7770581386571378 L 4.959038653996602,-0.8111323123680696 A 192.35066107331582 192.35066107331582 0 0 1 46.56438410643655,-7.191366714116754 L 46.521864528257005,-8.190462347913382 A 193.35066107331582 193.35066107331582 0 0 0 4.700219608894081,-1.7770581386571378 Z M 56.99564457712913,-8.352200032487445 L 56.98399428595974,-7.352267899432576 A 192.35066107331582 192.35066107331582 0 0 1 98.76650414597493,-2.259721283459812 L 98.07989172433064,0.6606491352445927 L 105.69513719322593,-1.1443540360738347 L 99.68198737483401,-6.153548508399019 L 98.99537495318971,-3.233178089694614 A 193.35066107331582 193.35066107331582 0 0 0 56.99564457712913,-8.352200032487445"/><text text-anchor="middle" pointer-events="none" font-size="8px" fill="#000000" x="51.76537921214826" y="-4.842332678102821" transform="rotate(180 51.76537921214826 -7.842332678102821)" font-family="sans-serif">7</text></g><g class="relationship" transform="translate(102.92582556755926 50.78192127597754) rotate(393.7081061082591)"><path class="outline" fill="#6DCE9E" stroke="none" d="M 4.700219608894081,1.7770581386571378 L 4.959038653996602,0.8111323123680696 A 53.58087594451015 53.58087594451015 0 0 0 9.445775236028524,1.809244158465951 L 9.270693839908796,2.793798120792424 A 54.58087594451015 54.58087594451015 0 0 1 4.700219608894081,1.7770581386571378 Z M 24.24841073833315,3.366918984160442 L 24.149078859853706,2.3718646248826474 A 53.58087594451015 53.58087594451015 0 0 0 28.69896929142194,1.7195384222905634 L 28.14622471703679,-1.2291008292096568 L 35.67125164065331,0.9212409573085822 L 29.435962057268807,5.6510574242908564 L 28.88321748288366,2.7024181727906367 A 54.58087594451015 54.58087594451015 0 0 1 24.24841073833315,3.366918984160442"/><text text-anchor="middle" pointer-events="none" font-size="8px" fill="#000000" x="16.758903753449072" y="6.097307130539342" font-family="sans-serif">18</text></g><g class="relationship" transform="translate(102.92582556755926 50.78192127597754) rotate(461.8957733040696)"><path class="outline" fill="#6DCE9E" stroke="none" d="M 4.700219608894081,1.7770581386571378 L 4.959038653996602,0.8111323123680696 A 80.02349056506608 80.02349056506608 0 0 0 15.889562276519607,2.937858237818233 L 15.767334669072953,3.93036033453032 A 81.02349056506608 81.02349056506608 0 0 1 4.700219608894081,1.7770581386571378 Z M 30.730162275386206,4.3797412020058175 L 30.667717172462563,3.3816928018162997 A 80.02349056506608 80.02349056506608 0 0 0 41.706169557824445,1.914764459799241 L 41.10501379555605,-1.0243870758469726 L 48.66438243471035,1.0019262704473386 L 42.50771057418231,5.833633173994192 L 41.906554811913914,2.894481638347979 A 81.02349056506608 81.02349056506608 0 0 1 30.730162275386206,4.3797412020058175"/><text text-anchor="middle" pointer-events="none" font-size="8px" fill="#000000" x="23.2533578187866" y="7.001575480595321" transform="rotate(180 23.2533578187866 4.001575480595321)" font-family="sans-serif">13</text></g><g class="relationship" transform="translate(102.92582556755926 50.78192127597754) rotate(483.7159877811428)"><path class="outline" fill="#6DCE9E" stroke="none" d="M 4.700219608894081,-1.7770581386571378 L 4.959038653996602,-0.8111323123680696 A 166.9004537411945 166.9004537411945 0 0 1 40.051227120503526,-6.301222562683336 L 40.00266627230755,-7.3000427887613455 A 167.9004537411945 167.9004537411945 0 0 0 4.700219608894081,-1.7770581386571378 Z M 50.47981317788215,-7.4820460749531605 L 50.4659730815177,-6.482141853673625 A 166.9004537411945 166.9004537411945 0 0 1 85.72767274630492,-2.214201006403823 L 85.05233093891663,0.7087963324922484 L 92.6605568382938,-1.125569678980481 L 86.6281284894893,-6.111530791598584 L 85.952786682101,-3.188533452702513 A 167.9004537411945 167.9004537411945 0 0 0 50.47981317788215,-7.4820460749531605"/><text text-anchor="middle" pointer-events="none" font-size="8px" fill="#000000" x="45.24850393523818" y="-3.9728750766924747" transform="rotate(180 45.24850393523818 -6.972875076692475)" font-family="sans-serif">7</text></g><g class="relationship" transform="translate(102.92582556755926 50.78192127597754) rotate(506.7999350320169)"><path class="outline" fill="#6DCE9E" stroke="none" d="M 4.700219608894081,-1.7770581386571378 L 4.959038653996602,-0.8111323123680696 A 124.04898890410004 124.04898890410004 0 0 1 26.932350684549633,-4.623452823349552 L 26.850665788017565,-5.62011102839206 A 125.04898890410004 125.04898890410004 0 0 0 4.700219608894081,-1.7770581386571378 Z M 41.79638979788776,-5.948468515791532 L 41.7585557431604,-4.949184479942431 A 124.04898890410004 124.04898890410004 0 0 1 63.87809833192155,-2.1055837810963154 L 63.22965728308976,0.8234987042888147 L 70.82069763929215,-1.0807350813863252 L 64.7426863970306,-6.011027094943155 L 64.09424534819881,-3.081944609558025 A 125.04898890410004 125.04898890410004 0 0 0 41.79638979788776,-5.948468515791532"/><text text-anchor="middle" pointer-events="none" font-size="8px" fill="#000000" x="34.32959894813186" y="-2.5079512897626444" transform="rotate(180 34.32959894813186 -5.507951289762644)" font-family="sans-serif">95</text></g><g class="relationship" transform="translate(102.92582556755926 50.78192127597754) rotate(528.5628542927525)"><path class="outline" fill="#6DCE9E" stroke="none" d="M 4.700219608894081,1.7770581386571378 L 4.959038653996602,0.8111323123680696 A 54.50356730608565 54.50356730608565 0 0 0 9.666190000847836,1.851691528231889 L 9.493735052253282,2.836708934527458 A 55.50356730608565 55.50356730608565 0 0 1 4.700219608894081,1.7770581386571378 Z M 24.470931058048777,3.40446453242334 L 24.373543963460758,2.4092179530231874 A 54.50356730608565 54.50356730608565 0 0 0 29.14596405230086,1.7280103638714008 L 28.591117939374783,-1.2202341631261175 L 36.11767563411608,0.9247435215434663 L 29.885758869535636,5.659003066534758 L 29.330912756609557,2.71075853953724 A 55.50356730608565 55.50356730608565 0 0 1 24.470931058048777,3.40446453242334"/><text text-anchor="middle" pointer-events="none" font-size="8px" fill="#000000" x="16.982021010915425" y="6.128818352320643" transform="rotate(180 16.982021010915425 3.1288183523206428)" font-family="sans-serif">96</text></g><g class="relationship" transform="translate(102.92582556755926 50.78192127597754) rotate(191.13548020050575)"><path class="outline" fill="#6DCE9E" stroke="none" d="M 1.777058138657138 4.700219608894081 L 12.129819942757969 43.33725266045681 A 12.557713659400521 12.557713659400521 0 1 1 -12.129819942757969 43.33725266045681 L -3.588791454374783 11.461700392917558 L 0.27491185078149 12.496976573327641 L -1.294095225512604 4.8296291314453415 L -6.486568933241988 10.685243257609997 L -2.622865628085715 11.720519438020078 L -11.1638941164689 43.59607170555933 A 11.557713659400521 11.557713659400521 0 1 0 11.1638941164689 43.59607170555933 L 0.8111323123680697 4.959038653996601 Z"/><text text-anchor="middle" pointer-events="none" font-size="8px" fill="#000000" x="0" y="68.14514177785426" transform="rotate(180 0 65.14514177785426)" font-family="sans-serif">147</text></g><g class="relationship" transform="translate(120.62173845131527 145.35583128882723) rotate(235.72179964277973)"><path class="outline" fill="#6DCE9E" stroke="none" d="M 4.700219608894081,1.7770581386571378 L 4.959038653996602,0.8111323123680696 A 74.90372346820445 74.90372346820445 0 0 0 14.62552047037005,2.7300679134206547 L 14.495753511983576,3.7216124341110373 A 75.90372346820445 75.90372346820445 0 0 1 4.700219608894081,1.7770581386571378 Z M 29.461245477526923,4.190826829854714 L 29.393848301115554,3.1931006045745676 A 74.90372346820445 74.90372346820445 0 0 0 39.16155511179052,1.8834868416816821 L 38.568153118306746,-1.0572399518388385 L 46.122151295585695,0.9890033224729609 L 39.95275776976889,5.804455899709042 L 39.35935577628511,2.863729106188522 A 75.90372346820445 75.90372346820445 0 0 1 29.461245477526923,4.190826829854714"/><text text-anchor="middle" pointer-events="none" font-size="8px" fill="#000000" x="21.98257035069826" y="6.826380559565962" transform="rotate(180 21.98257035069826 3.826380559565962)" font-family="sans-serif">19</text></g><g class="relationship" transform="translate(120.62173845131527 145.35583128882723) rotate(213.2446164137865)"><path class="outline" fill="#6DCE9E" stroke="none" d="M 4.700219608894081,1.7770581386571378 L 4.959038653996602,0.8111323123680696 A 165.66348202737876 165.66348202737876 0 0 0 35.308079592307315,5.981609147681326 L 35.232457474897615,6.97874569568188 A 166.66348202737876 166.66348202737876 0 0 1 4.700219608894081,1.7770581386571378 Z M 54.6244103624408,7.317667041961187 L 54.583678539253256,6.318496927025905 A 165.66348202737876 165.66348202737876 0 0 0 85.09486230843928,2.2116999290320183 L 84.42013981126998,-0.7114404288388849 L 92.02797689299959,1.124537495282148 L 85.994492304665,6.109220406193223 L 85.3197698074957,3.1860800483223195 A 166.66348202737876 166.66348202737876 0 0 1 54.6244103624408,7.317667041961187"/><text text-anchor="middle" pointer-events="none" font-size="8px" fill="#000000" x="44.93223700837743" y="9.930606216873088" transform="rotate(180 44.93223700837743 6.9306062168730875)" font-family="sans-serif">185</text></g><g class="relationship" transform="translate(120.62173845131527 145.35583128882723) rotate(236.1782261614361)"><path class="outline" fill="#6DCE9E" stroke="none" d="M 4.700219608894081,-1.7770581386571378 L 4.959038653996602,-0.8111323123680696 A 179.62948213303252 179.62948213303252 0 0 1 38.87712361689672,-6.491269163530603 L 38.80712705549863,-7.488816396193016 A 180.62948213303252 180.62948213303252 0 0 0 4.700219608894081,-1.7770581386571378 Z M 58.19657165005164,-7.805842454688786 L 58.15922446907952,-6.806540104009343 A 179.62948213303252 179.62948213303252 0 0 1 92.24487504938708,-2.2382946294727546 L 91.56356753450075,0.683317950962818 L 99.17552232288448,-1.1355125248105638 L 93.15328506923552,-6.133778070053518 L 92.4719775543492,-3.212165489617945 A 180.62948213303252 180.62948213303252 0 0 0 58.19657165005164,-7.805842454688786"/><text text-anchor="middle" pointer-events="none" font-size="8px" fill="#000000" x="48.50576599986599" y="-4.407785672713089" transform="rotate(180 48.50576599986599 -7.407785672713089)" font-family="sans-serif">352</text></g><g class="relationship" transform="translate(120.62173845131527 145.35583128882723) rotate(521.4106966775746)"><path class="outline" fill="#6DCE9E" stroke="none" d="M 4.700219608894081,-1.7770581386571378 L 4.959038653996602,-0.8111323123680696 A 57.966047914556135 57.966047914556135 0 0 1 10.496930940556313,-2.0083384943460274 L 10.333648722368794,-2.9949178967378316 A 58.966047914556135 58.966047914556135 0 0 0 4.700219608894081,-1.7770581386571378 Z M 25.308837619952932,-3.5433385182187607 L 25.21815693190526,-2.5474584989316966 A 57.966047914556135 57.966047914556135 0 0 1 30.82878523820277,-1.7585328824906354 L 30.266368281783098,1.188276776637629 L 37.79841060223866,-0.9373615940327842 L 31.578674513428997,-5.687612427994988 L 31.016257557009325,-2.740802768866723 A 58.966047914556135 58.966047914556135 0 0 0 25.308837619952932,-3.5433385182187607"/><text text-anchor="middle" pointer-events="none" font-size="8px" fill="#000000" x="17.822049501917846" y="-0.24711051717492438" transform="rotate(180 17.822049501917846 -3.2471105171749244)" font-family="sans-serif">23</text></g><g class="relationship" transform="translate(120.62173845131527 145.35583128882723) rotate(190.60258835573757)"><path class="outline" fill="#6DCE9E" stroke="none" d="M 4.700219608894081,-1.7770581386571378 L 4.959038653996602,-0.8111323123680696 A 118.87664862938846 118.87664862938846 0 0 1 27.83267363925527,-4.599372177178381 L 27.766269464936748,-5.597164984144371 A 119.87664862938846 119.87664862938846 0 0 0 4.700219608894081,-1.7770581386571378 Z M 38.25320504272858,-5.835126237098478 L 38.23212816299951,-4.835348379201591 A 118.87664862938846 118.87664862938846 0 0 1 61.25405142810736,-2.0885342450321693 L 60.60983393749364,0.8414800595041343 L 68.19812105379435,-1.0736958176895368 L 62.11300808225899,-5.995219984413907 L 61.46879059164527,-3.065205679877604 A 119.87664862938846 119.87664862938846 0 0 0 38.25320504272858,-5.835126237098478"/><text text-anchor="middle" pointer-events="none" font-size="8px" fill="#000000" x="33.0184758846152" y="-2.331034770445143" transform="rotate(180 33.0184758846152 -5.331034770445143)" font-family="sans-serif">8</text></g><g class="relationship" transform="translate(120.62173845131527 145.35583128882723) rotate(259.40182231930305)"><path class="outline" fill="#6DCE9E" stroke="none" d="M 4.700219608894081,-1.7770581386571378 L 4.959038653996602,-0.8111323123680696 A 164.32395568992436 164.32395568992436 0 0 1 34.966124333413376,-5.932450047881218 L 34.889914607526855,-6.929541857936982 A 165.32395568992436 165.32395568992436 0 0 0 4.700219608894081,-1.7770581386571378 Z M 54.28212197401986,-7.270721034449593 L 54.24103346998219,-6.271565523612594 A 164.32395568992436 164.32395568992436 0 0 1 84.4096976775611,-2.2089572173285505 L 83.73565433002696,0.7143398195195645 L 91.34306465479573,-1.1234055792235802 L 85.30842214093994,-6.106686599792704 L 84.6343787934058,-3.1833895629445896 A 165.32395568992436 165.32395568992436 0 0 0 54.28212197401986,-7.270721034449593"/><text text-anchor="middle" pointer-events="none" font-size="8px" fill="#000000" x="44.589806191361724" y="-3.8848318067366847" transform="rotate(180 44.589806191361724 -6.884831806736685)" font-family="sans-serif">104</text></g><g class="relationship" transform="translate(120.62173845131527 145.35583128882723) rotate(282.5705536176803)"><path class="outline" fill="#6DCE9E" stroke="none" d="M 4.700219608894081,-1.7770581386571378 L 4.959038653996602,-0.8111323123680696 A 120.33477141820673 120.33477141820673 0 0 1 23.786719067472,-4.279394579711067 L 23.684360870647843,-5.274142185660892 A 121.33477141820673 121.33477141820673 0 0 0 4.700219608894081,-1.7770581386571378 Z M 43.08642574601586,-5.710363768083198 L 43.02887870999878,-4.712020971922655 A 120.33477141820673 120.33477141820673 0 0 1 61.99341093531418,-2.0934506784201856 L 61.34797550517773,0.8362955743335534 L 68.93705809676231,-1.0757257168940917 L 62.85399150882945,-5.999779015425171 L 62.208556078693,-3.070032762671432 A 121.33477141820673 121.33477141820673 0 0 0 43.08642574601586,-5.710363768083198"/><text text-anchor="middle" pointer-events="none" font-size="8px" fill="#000000" x="33.38789663851488" y="-2.3809109970786295" font-family="sans-serif">152</text></g><g class="relationship" transform="translate(120.62173845131527 145.35583128882723) rotate(306.57729762426516)"><path class="outline" fill="#6DCE9E" stroke="none" d="M 4.700219608894081,-1.7770581386571378 L 4.959038653996602,-0.8111323123680696 A 49.856847590160115 49.856847590160115 0 0 1 8.560740655890193,-1.6344828066623052 L 8.374162479915634,-2.616922924048602 A 50.856847590160115 50.856847590160115 0 0 0 4.700219608894081,-1.7770581386571378 Z M 23.35387044666399,-3.2126709198275663 L 23.245902092986036,-2.2185165884463345 A 49.856847590160115 49.856847590160115 0 0 1 26.901615039470087,-1.6837959138808718 L 26.357737409580572,1.2664917201822488 L 33.87626579059896,-0.9064627164825241 L 27.62678521265611,-5.617512759298366 L 27.082907582766595,-2.667225125235245 A 50.856847590160115 50.856847590160115 0 0 0 23.35387044666399,-3.2126709198275663"/><text text-anchor="middle" pointer-events="none" font-size="8px" fill="#000000" x="15.861813613944927" y="0.029813819323415203" font-family="sans-serif">79</text></g><g class="relationship" transform="translate(120.62173845131527 145.35583128882723) rotate(323.9939971509199)"><path class="outline" fill="#6DCE9E" stroke="none" d="M 1.777058138657138 4.700219608894081 L 12.129819942757969 43.33725266045681 A 12.557713659400521 12.557713659400521 0 1 1 -12.129819942757969 43.33725266045681 L -3.588791454374783 11.461700392917558 L 0.27491185078149 12.496976573327641 L -1.294095225512604 4.8296291314453415 L -6.486568933241988 10.685243257609997 L -2.622865628085715 11.720519438020078 L -11.1638941164689 43.59607170555933 A 11.557713659400521 11.557713659400521 0 1 0 11.1638941164689 43.59607170555933 L 0.8111323123680697 4.959038653996601 Z"/><text text-anchor="middle" pointer-events="none" font-size="8px" fill="#000000" x="0" y="68.14514177785426" font-family="sans-serif">157</text></g><g class="relationship" transform="translate(143.73899352805452 114.20264011237303) rotate(191.98531067063846)"><path class="outline" fill="#6DCE9E" stroke="none" d="M 5 0.5 L 17.78027895407628 0.5 L 17.78027895407628 -0.5 L 5 -0.5 Z M 28.22949770407628 0.5 L 41.00977665815256 0.5 L 41.00977665815256 3.5 L 48.00977665815256 0 L 41.00977665815256 -3.5 L 41.00977665815256 -0.5 L 28.22949770407628 -0.5 Z"/><text text-anchor="middle" pointer-events="none" font-size="8px" fill="#000000" x="23.00488832907628" y="3" transform="rotate(180 23.00488832907628 0)" font-family="sans-serif">1</text></g><g class="relationship" transform="translate(143.73899352805452 114.20264011237303) rotate(504.8575970748841)"><path class="outline" fill="#6DCE9E" stroke="none" d="M 4.700219608894081,-1.7770581386571378 L 4.959038653996602,-0.8111323123680696 A 128.13434139050415 128.13434139050415 0 0 1 30.17778049659153,-4.930659438081264 L 30.115776306655256,-5.928735327195071 A 129.13434139050415 129.13434139050415 0 0 0 4.700219608894081,-1.7770581386571378 Z M 40.600319664686204,-6.153432637768631 L 40.581132877496366,-5.153616721113323 A 128.13434139050415 128.13434139050415 0 0 1 65.9532119197426,-2.1183162521409775 L 65.30161691999,0.810066229075812 L 72.89470354254054,-1.085991666254359 L 66.82200525274608,-6.022826227096697 L 66.17041025299348,-3.0944437458799072 A 129.13434139050415 129.13434139050415 0 0 0 40.600319664686204,-6.153432637768631"/><text text-anchor="middle" pointer-events="none" font-size="8px" fill="#000000" x="35.36647928281723" y="-2.647673397053566" transform="rotate(180 35.36647928281723 -5.647673397053566)" font-family="sans-serif">2</text></g><g class="relationship" transform="translate(143.73899352805452 114.20264011237303) rotate(237.2374825599469)"><path class="outline" fill="#6DCE9E" stroke="none" d="M 4.700219608894081,-1.7770581386571378 L 4.959038653996602,-0.8111323123680696 A 123.48827800320217 123.48827800320217 0 0 1 26.7903907608729,-4.602718777259085 L 26.708360577514085,-5.599348622797606 A 124.48827800320217 124.48827800320217 0 0 0 4.700219608894081,-1.7770581386571378 Z M 41.65424905173299,-5.928845763434822 L 41.61622063428254,-4.929569105313448 A 123.48827800320217 123.48827800320217 0 0 1 63.593459283867745,-2.103787076505336 L 62.9454633072366,0.8253939036100699 L 70.53621423357555,-1.0799932943852333 L 64.45745391937594,-6.00936171665921 L 63.8094579427448,-3.080180736543805 A 124.48827800320217 124.48827800320217 0 0 0 41.65424905173299,-5.928845763434822"/><text text-anchor="middle" pointer-events="none" font-size="8px" fill="#000000" x="34.18737460138664" y="-2.4887735412988548" transform="rotate(180 34.18737460138664 -5.488773541298855)" font-family="sans-serif">12</text></g><g class="relationship" transform="translate(143.73899352805452 114.20264011237303) rotate(191.91008598257463)"><path class="outline" fill="#6DCE9E" stroke="none" d="M 4.700219608894081,1.7770581386571378 L 4.959038653996602,0.8111323123680696 A 184.32546048092343 184.32546048092343 0 0 0 42.29286605510709,6.799759621496378 L 42.23658998645342,7.798174867822695 A 185.32546048092343 185.32546048092343 0 0 1 4.700219608894081,1.7770581386571378 Z M 57.16937540964498,8.037145858858167 L 57.145075472258036,7.0374411459339115 A 184.32546048092343 184.32546048092343 0 0 0 94.65140965562532,2.246489091371412 L 93.96807326971863,-0.6746496221606888 L 101.58128938485135,1.1388939765111474 L 95.56252483683424,6.141340709414214 L 94.87918845092756,3.220201995882113 A 185.32546048092343 185.32546048092343 0 0 1 57.16937540964498,8.037145858858167"/><text text-anchor="middle" pointer-events="none" font-size="8px" fill="#000000" x="49.708575026052955" y="10.56820776353166" transform="rotate(180 49.708575026052955 7.56820776353166)" font-family="sans-serif">19</text></g><g class="relationship" transform="translate(143.73899352805452 114.20264011237303) rotate(214.30467579529568)"><path class="outline" fill="#6DCE9E" stroke="none" d="M 4.700219608894081,-1.7770581386571378 L 4.959038653996602,-0.8111323123680696 A 167.99696134237024 167.99696134237024 0 0 1 38.11678598613647,-6.218024477425217 L 38.055338054577874,-7.2161347677775325 A 168.99696134237024 168.99696134237024 0 0 0 4.700219608894081,-1.7770581386571378 Z M 52.990888923346816,-7.474199813620089 L 52.96395922521235,-6.474562483705711 A 167.99696134237024 167.99696134237024 0 0 1 86.28870505453918,-2.2163931073952403 L 85.61282044954353,0.7064787681288798 L 93.22138686492806,-1.126474341659433 L 87.1898845278667,-6.113555608094067 L 86.51399992287105,-3.190683732569947 A 168.99696134237024 168.99696134237024 0 0 0 52.990888923346816,-7.474199813620089"/><text text-anchor="middle" pointer-events="none" font-size="8px" fill="#000000" x="45.52889877110558" y="-4.010343271977831" transform="rotate(180 45.52889877110558 -7.010343271977831)" font-family="sans-serif">84</text></g><g class="relationship" transform="translate(143.73899352805452 114.20264011237303) rotate(529.4367863867723)"><path class="outline" fill="#6DCE9E" stroke="none" d="M 4.700219608894081,-1.7770581386571378 L 4.959038653996602,-0.8111323123680696 A 165.05305888856307 165.05305888856307 0 0 1 37.36480099247787,-6.112663499560938 L 37.30231737161223,-7.1107094890441545 A 166.05305888856307 166.05305888856307 0 0 0 4.700219608894081,-1.7770581386571378 Z M 52.23841402800012,-7.3725420470752 L 52.21094991314587,-6.372919257021238 A 165.05305888856307 165.05305888856307 0 0 1 84.78261786376433,-2.2104545326584866 L 84.1082037505058,0.7127569895953689 L 91.71584710123308,-1.1240235220975476 L 85.68183668144238,-6.108069895663627 L 85.00742256818384,-3.1848583734097717 A 166.05305888856307 166.05305888856307 0 0 0 52.23841402800012,-7.3725420470752"/><text text-anchor="middle" pointer-events="none" font-size="8px" fill="#000000" x="44.77618359767198" y="-3.9097469310116253" transform="rotate(180 44.77618359767198 -6.909746931011625)" font-family="sans-serif">18</text></g><g class="relationship" transform="translate(143.73899352805452 114.20264011237303) rotate(260.2179872074675)"><path class="outline" fill="#6DCE9E" stroke="none" d="M 4.700219608894081,-1.7770581386571378 L 4.959038653996602,-0.8111323123680696 A 55.473271802712055 55.473271802712055 0 0 1 12.077880122459934,-2.2270222096251615 L 11.947390293160318,-3.2184718575898756 A 56.473271802712055 56.473271802712055 0 0 0 4.700219608894081,-1.7770581386571378 Z M 22.46723831437185,-3.6133815809483494 L 22.411448020607903,-2.614939072277103 A 55.473271802712055 55.473271802712055 0 0 1 29.616407765995948,-1.7367573589593817 L 29.05939195240163,1.2110780135480215 L 36.587526270778945,-0.928359689323869 L 30.359095517455042,-5.667204522302585 L 29.802079703860723,-2.7193691497951824 A 56.473271802712055 56.473271802712055 0 0 0 22.46723831437185,-3.6133815809483494"/><text text-anchor="middle" pointer-events="none" font-size="8px" fill="#000000" x="17.216848808935925" y="-0.16194070826090723" transform="rotate(180 17.216848808935925 -3.1619407082609072)" font-family="sans-serif">8</text></g><g class="relationship" transform="translate(143.73899352805452 114.20264011237303) rotate(283.39764241586636)"><path class="outline" fill="#6DCE9E" stroke="none" d="M 1.777058138657138 4.700219608894081 L 12.129819942757969 43.33725266045681 A 12.557713659400521 12.557713659400521 0 1 1 -12.129819942757969 43.33725266045681 L -3.588791454374783 11.461700392917558 L 0.27491185078149 12.496976573327641 L -1.294095225512604 4.8296291314453415 L -6.486568933241988 10.685243257609997 L -2.622865628085715 11.720519438020078 L -11.1638941164689 43.59607170555933 A 11.557713659400521 11.557713659400521 0 1 0 11.1638941164689 43.59607170555933 L 0.8111323123680697 4.959038653996601 Z"/><text text-anchor="middle" pointer-events="none" font-size="8px" fill="#000000" x="0" y="68.14514177785426" font-family="sans-serif">86</text></g><g class="relationship" transform="translate(91.88478375552926 103.19458169073658) rotate(281.8957733040696)"><path class="outline" fill="#6DCE9E" stroke="none" d="M 4.700219608894081,1.7770581386571378 L 4.959038653996602,0.8111323123680696 A 80.02349056506608 80.02349056506608 0 0 0 18.08723521782484,3.177736418976835 L 17.992470458171837,4.17323611276278 A 81.02349056506608 81.02349056506608 0 0 1 4.700219608894081,1.7770581386571378 Z M 28.494461467059363,4.488643999157361 L 28.459609606450197,3.489251509785902 A 80.02349056506608 80.02349056506608 0 0 0 41.706169557824445,1.914764459799241 L 41.10501379555605,-1.0243870758469726 L 48.66438243471035,1.0019262704473386 L 42.50771057418231,5.833633173994192 L 41.906554811913914,2.894481638347979 A 81.02349056506608 81.02349056506608 0 0 1 28.494461467059363,4.488643999157361"/><text text-anchor="middle" pointer-events="none" font-size="8px" fill="#000000" x="23.2533578187866" y="7.001575480595321" font-family="sans-serif">2</text></g><g class="relationship" transform="translate(91.88478375552926 103.19458169073658) rotate(415.72179964277973)"><path class="outline" fill="#6DCE9E" stroke="none" d="M 4.700219608894081,1.7770581386571378 L 4.959038653996602,0.8111323123680696 A 74.90372346820445 74.90372346820445 0 0 0 16.820605138047135,2.984472521338688 L 16.720143594212033,3.9794134634102534 A 75.90372346820445 75.90372346820445 0 0 1 4.700219608894081,1.7770581386571378 Z M 27.22507448191307,4.308775492413417 L 27.187137928689054,3.309495342540771 A 74.90372346820445 74.90372346820445 0 0 0 39.16155511179052,1.8834868416816821 L 38.568153118306746,-1.0572399518388385 L 46.122151295585695,0.9890033224729609 L 39.95275776976889,5.804455899709042 L 39.35935577628511,2.863729106188522 A 75.90372346820445 75.90372346820445 0 0 1 27.22507448191307,4.308775492413417"/><text text-anchor="middle" pointer-events="none" font-size="8px" fill="#000000" x="21.98257035069826" y="6.826380559565962" font-family="sans-serif">1</text></g><g class="relationship" transform="translate(91.88478375552926 103.19458169073658) rotate(326.29194149117006)"><path class="outline" fill="#6DCE9E" stroke="none" d="M 4.700219608894081,1.7770581386571378 L 4.959038653996602,0.8111323123680696 A 80.61713561824106 80.61713561824106 0 0 0 13.845925086144543,2.6632354130103266 L 13.697341741727685,3.652135301655221 A 81.61713561824106 81.61713561824106 0 0 1 4.700219608894081,1.7770581386571378 Z M 33.10947627737884,4.232304572514963 L 33.02021576230949,3.2362962590709543 A 80.61713561824106 80.61713561824106 0 0 0 42.001848895841526,1.9182285036260152 L 41.39983444600398,-1.020747270718986 L 48.95979477761945,1.003357416395911 L 42.80453482895825,5.83686286941935 L 42.202520379120706,2.8978870950743487 A 81.61713561824106 81.61713561824106 0 0 1 33.10947627737884,4.232304572514963"/><text text-anchor="middle" pointer-events="none" font-size="8px" fill="#000000" x="23.401027892726827" y="7.021890754726627" font-family="sans-serif">503</text></g><g class="relationship" transform="translate(91.88478375552926 103.19458169073658) rotate(348.8062891931565)"><path class="outline" fill="#6DCE9E" stroke="none" d="M 1.777058138657138 4.700219608894081 L 12.129819942757969 43.33725266045681 A 12.557713659400521 12.557713659400521 0 1 1 -12.129819942757969 43.33725266045681 L -3.588791454374783 11.461700392917558 L 0.27491185078149 12.496976573327641 L -1.294095225512604 4.8296291314453415 L -6.486568933241988 10.685243257609997 L -2.622865628085715 11.720519438020078 L -11.1638941164689 43.59607170555933 A 11.557713659400521 11.557713659400521 0 1 0 11.1638941164689 43.59607170555933 L 0.8111323123680697 4.959038653996601 Z"/><text text-anchor="middle" pointer-events="none" font-size="8px" fill="#000000" x="0" y="68.14514177785426" font-family="sans-serif">20</text></g><g class="relationship" transform="translate(39.58072063972525 92.23389900533277) rotate(436.93488773661454)"><path class="outline" fill="#6DCE9E" stroke="none" d="M 4.700219608894081,-1.7770581386571378 L 4.959038653996602,-0.8111323123680696 A 53.878953196002094 53.878953196002094 0 0 1 11.694626979232936,-2.1625112674798217 L 11.560821282120557,-3.1535188534347753 A 54.878953196002094 54.878953196002094 0 0 0 4.700219608894081,-1.7770581386571378 Z M 22.082248121485044,-3.554900024188612 L 22.024333200279745,-2.556578501881404 A 53.878953196002094 53.878953196002094 0 0 1 28.843302345680748,-1.7222914041458268 L 28.28987486325284,1.2262197492489695 L 35.81539961733992,-0.9223791373798451 L 29.581205655584625,-5.653639608672222 L 29.02777817315672,-2.7051284552774253 A 54.878953196002094 54.878953196002094 0 0 0 22.082248121485044,-3.554900024188612"/><text text-anchor="middle" pointer-events="none" font-size="8px" fill="#000000" x="16.830946925194517" y="-0.10748630622003219" font-family="sans-serif">2</text></g><g class="relationship" transform="translate(39.58072063972525 92.23389900533277) rotate(371.8354671326512)"><path class="outline" fill="#6DCE9E" stroke="none" d="M 4.700219608894081,-1.7770581386571378 L 4.959038653996602,-0.8111323123680696 A 79.77639654900773 79.77639654900773 0 0 1 15.828419757148415,-2.927913288823035 L 15.705848795104831,-3.9203730407846535 A 80.77639654900773 80.77639654900773 0 0 0 4.700219608894081,-1.7770581386571378 Z M 30.668801419397308,-4.370674323269398 L 30.606133211787984,-3.3726399071518784 A 79.77639654900773 79.77639654900773 0 0 1 41.583135183625544,-1.9133130150164481 L 40.98233921724167,1.0259120880977841 L 48.54145975195607,-1.0013266106397831 L 42.384196472137376,-5.8322798191687575 L 41.783400505753505,-2.8930547160545252 A 80.77639654900773 80.77639654900773 0 0 0 30.668801419397308,-4.370674323269398"/><text text-anchor="middle" pointer-events="none" font-size="8px" fill="#000000" x="23.191911616634034" y="-0.9931196688084043" font-family="sans-serif">30</text></g><g class="relationship" transform="translate(39.58072063972525 92.23389900533277) rotate(304.76915678731996)"><path class="outline" fill="#6DCE9E" stroke="none" d="M 4.700219608894081,-1.7770581386571378 L 4.959038653996602,-0.8111323123680696 A 53.521371320955566 53.521371320955566 0 0 1 9.431575333493386,-1.8064958024109856 L 9.256321723451862,-2.7910191247184883 A 54.521371320955566 54.521371320955566 0 0 0 4.700219608894081,-1.7770581386571378 Z M 24.234071928679192,-3.3644891827778025 L 24.134612158584762,-2.3694475986554266 A 53.521371320955566 53.521371320955566 0 0 1 28.670164366209086,-1.7189869936464686 L 28.117556580700874,1.2296778966718107 L 35.64248374120311,-0.9210129758470202 L 29.4069747468867,-5.650540180737508 L 28.85436696137849,-2.7018752904192285 A 54.521371320955566 54.521371320955566 0 0 0 24.234071928679192,-3.3644891827778025"/><text text-anchor="middle" pointer-events="none" font-size="8px" fill="#000000" x="16.74452597992345" y="-0.09527514861260755" font-family="sans-serif">80</text></g><g class="relationship" transform="translate(39.58072063972525 92.23389900533277) rotate(393.2446164137865)"><path class="outline" fill="#6DCE9E" stroke="none" d="M 4.700219608894081,1.7770581386571378 L 4.959038653996602,0.8111323123680696 A 165.66348202737876 165.66348202737876 0 0 0 37.52070069905677,6.134523515639046 L 37.45843470020544,7.132583105737297 A 166.66348202737876 166.66348202737876 0 0 1 4.700219608894081,1.7770581386571378 Z M 52.3944168964994,7.393625571306785 L 52.36706528977449,6.393999696486816 A 165.66348202737876 165.66348202737876 0 0 0 85.09486230843928,2.2116999290320183 L 84.42013981126998,-0.7114404288388849 L 92.02797689299959,1.124537495282148 L 85.994492304665,6.109220406193223 L 85.3197698074957,3.1860800483223195 A 166.66348202737876 166.66348202737876 0 0 1 52.3944168964994,7.393625571306785"/><text text-anchor="middle" pointer-events="none" font-size="8px" fill="#000000" x="44.93223700837743" y="9.930606216873088" font-family="sans-serif">14</text></g><g class="relationship" transform="translate(39.58072063972525 92.23389900533277) rotate(348.9700246130401)"><path class="outline" fill="#6DCE9E" stroke="none" d="M 4.700219608894081,-1.7770581386571378 L 4.959038653996602,-0.8111323123680696 A 169.64368337013133 169.64368337013133 0 0 1 38.53755494012904,-6.276891167067561 L 38.476671448057814,-7.275036046528072 A 170.64368337013133 170.64368337013133 0 0 0 4.700219608894081,-1.7770581386571378 Z M 53.41192374118615,-7.531039976989689 L 53.385284202822476,-6.531394872467189 A 169.64368337013133 169.64368337013133 0 0 1 87.13139601407356,-2.2196419275122845 L 86.45470695977396,0.7030438106044747 L 94.06377757872927,-1.1278150904993351 L 88.03364808647304,-6.116556245001297 L 87.35695903217344,-3.193870506884538 A 170.64368337013133 170.64368337013133 0 0 0 53.41192374118615,-7.531039976989689"/><text text-anchor="middle" pointer-events="none" font-size="8px" fill="#000000" x="45.95006426050956" y="-4.06661110703979" font-family="sans-serif">52</text></g><g class="relationship" transform="translate(39.58072063972525 92.23389900533277) rotate(371.9100859825746)"><path class="outline" fill="#6DCE9E" stroke="none" d="M 4.700219608894081,1.7770581386571378 L 4.959038653996602,0.8111323123680696 A 184.32546048092343 184.32546048092343 0 0 0 42.29286605510709,6.799759621496378 L 42.23658998645342,7.798174867822695 A 185.32546048092343 185.32546048092343 0 0 1 4.700219608894081,1.7770581386571378 Z M 57.16937540964498,8.037145858858167 L 57.145075472258036,7.0374411459339115 A 184.32546048092343 184.32546048092343 0 0 0 94.65140965562532,2.246489091371412 L 93.96807326971863,-0.6746496221606888 L 101.58128938485135,1.1388939765111474 L 95.56252483683424,6.141340709414214 L 94.87918845092756,3.220201995882113 A 185.32546048092343 185.32546048092343 0 0 1 57.16937540964498,8.037145858858167"/><text text-anchor="middle" pointer-events="none" font-size="8px" fill="#000000" x="49.708575026052955" y="10.56820776353166" font-family="sans-serif">30</text></g><g class="relationship" transform="translate(39.58072063972525 92.23389900533277) rotate(418.7108130170251)"><path class="outline" fill="#6DCE9E" stroke="none" d="M 4.700219608894081,-1.7770581386571378 L 4.959038653996602,-0.8111323123680696 A 128.76497079028022 128.76497079028022 0 0 1 25.919773745213853,-4.603520907276746 L 25.823737597995542,-5.59889875434159 A 129.76497079028022 129.76497079028022 0 0 0 4.700219608894081,-1.7770581386571378 Z M 45.22368535749065,-6.013096016780352 L 45.17022085255802,-5.014526266230931 A 128.76497079028022 128.76497079028022 0 0 1 66.27371961232923,-2.1202272292766127 L 65.62165125855337,0.8080498856843397 L 73.21504427286743,-1.086780589626427 L 67.14314408403037,-6.0245967158912155 L 66.49107573025451,-3.096319600930263 A 129.76497079028022 129.76497079028022 0 0 0 45.22368535749065,-6.013096016780352"/><text text-anchor="middle" pointer-events="none" font-size="8px" fill="#000000" x="35.52663130205572" y="-2.6692402307737524" font-family="sans-serif">425</text></g><g class="relationship" transform="translate(39.58072063972525 92.23389900533277) rotate(326.7999350320169)"><path class="outline" fill="#6DCE9E" stroke="none" d="M 4.700219608894081,-1.7770581386571378 L 4.959038653996602,-0.8111323123680696 A 124.04898890410004 124.04898890410004 0 0 1 26.932350684549633,-4.623452823349552 L 26.850665788017565,-5.62011102839206 A 125.04898890410004 125.04898890410004 0 0 0 4.700219608894081,-1.7770581386571378 Z M 41.79638979788776,-5.948468515791532 L 41.7585557431604,-4.949184479942431 A 124.04898890410004 124.04898890410004 0 0 1 63.87809833192155,-2.1055837810963154 L 63.22965728308976,0.8234987042888147 L 70.82069763929215,-1.0807350813863252 L 64.7426863970306,-6.011027094943155 L 64.09424534819881,-3.081944609558025 A 125.04898890410004 125.04898890410004 0 0 0 41.79638979788776,-5.948468515791532"/><text text-anchor="middle" pointer-events="none" font-size="8px" fill="#000000" x="34.32959894813186" y="-2.5079512897626444" font-family="sans-serif">73</text></g><g class="relationship" transform="translate(39.58072063972525 92.23389900533277) rotate(460.85202226196725)"><path class="outline" fill="#6DCE9E" stroke="none" d="M 1.777058138657138 4.700219608894081 L 12.129819942757969 43.33725266045681 A 12.557713659400521 12.557713659400521 0 1 1 -12.129819942757969 43.33725266045681 L -3.588791454374783 11.461700392917558 L 0.27491185078149 12.496976573327641 L -1.294095225512604 4.8296291314453415 L -6.486568933241988 10.685243257609997 L -2.622865628085715 11.720519438020078 L -11.1638941164689 43.59607170555933 A 11.557713659400521 11.557713659400521 0 1 0 11.1638941164689 43.59607170555933 L 0.8111323123680697 4.959038653996601 Z"/><text text-anchor="middle" pointer-events="none" font-size="8px" fill="#000000" x="0" y="68.14514177785426" transform="rotate(180 0 65.14514177785426)" font-family="sans-serif">87</text></g></g><g class="layer nodes"><g class="node" transform="translate(136.68803846355542,73.30542007613569)"><circle class="outline" cx="0" cy="0" r="5" fill="#A5ABB6" stroke="#9AA1AC" stroke-width="2px"/><text text-anchor="middle" pointer-events="none" font-family="sans-serif" dy="0.3125" font-size="5" fill="#FFFFFF"/><text text-anchor="middle" pointer-events="none" y="5" font-size="10px" fill="#FFFFFF" font-family="sans-serif"/></g><g class="node" transform="translate(80.1402345494767,158.9709495041593)"><circle class="outline" cx="0" cy="0" r="5" fill="#A5ABB6" stroke="#9AA1AC" stroke-width="2px"/><text text-anchor="middle" pointer-events="none" font-family="sans-serif" dy="0.3125" font-size="5" fill="#FFFFFF"/><text text-anchor="middle" pointer-events="none" y="5" font-size="10px" fill="#FFFFFF" font-family="sans-serif"/></g><g class="node" transform="translate(62.70917709697576,58.91815669607699)"><circle class="outline" cx="0" cy="0" r="5" fill="#A5ABB6" stroke="#9AA1AC" stroke-width="2px"/><text text-anchor="middle" pointer-events="none" font-family="sans-serif" dy="0.3125" font-size="5" fill="#FFFFFF"/><text text-anchor="middle" pointer-events="none" y="5" font-size="10px" fill="#FFFFFF" font-family="sans-serif"/></g><g class="node" transform="translate(48.78797751787294,131.90914953644528)"><circle class="outline" cx="0" cy="0" r="5" fill="#A5ABB6" stroke="#9AA1AC" stroke-width="2px"/><text text-anchor="middle" pointer-events="none" font-family="sans-serif" dy="0.3125" font-size="5" fill="#FFFFFF"/><text text-anchor="middle" pointer-events="none" y="5" font-size="10px" fill="#FFFFFF" font-family="sans-serif"/></g><g class="node" transform="translate(102.92582556755926,50.78192127597754)"><circle class="outline" cx="0" cy="0" r="5" fill="#A5ABB6" stroke="#9AA1AC" stroke-width="2px"/><text text-anchor="middle" pointer-events="none" font-family="sans-serif" dy="0.3125" font-size="5" fill="#FFFFFF"/><text text-anchor="middle" pointer-events="none" y="5" font-size="10px" fill="#FFFFFF" font-family="sans-serif"/></g><g class="node" transform="translate(120.62173845131527,145.35583128882723)"><circle class="outline" cx="0" cy="0" r="5" fill="#A5ABB6" stroke="#9AA1AC" stroke-width="2px"/><text text-anchor="middle" pointer-events="none" font-family="sans-serif" dy="0.3125" font-size="5" fill="#FFFFFF"/><text text-anchor="middle" pointer-events="none" y="5" font-size="10px" fill="#FFFFFF" font-family="sans-serif"/></g><g class="node" transform="translate(143.73899352805452,114.20264011237303)"><circle class="outline" cx="0" cy="0" r="5" fill="#A5ABB6" stroke="#9AA1AC" stroke-width="2px"/><text text-anchor="middle" pointer-events="none" font-family="sans-serif" dy="0.3125" font-size="5" fill="#FFFFFF"/><text text-anchor="middle" pointer-events="none" y="5" font-size="10px" fill="#FFFFFF" font-family="sans-serif"/></g><g class="node" transform="translate(91.88478375552926,103.19458169073658)"><circle class="outline" cx="0" cy="0" r="5" fill="#A5ABB6" stroke="#9AA1AC" stroke-width="2px"/><text text-anchor="middle" pointer-events="none" font-family="sans-serif" dy="0.3125" font-size="5" fill="#FFFFFF"/><text text-anchor="middle" pointer-events="none" y="5" font-size="10px" fill="#FFFFFF" font-family="sans-serif"/></g><g class="node" transform="translate(39.58072063972525,92.23389900533277)"><circle class="outline" cx="0" cy="0" r="5" fill="#A5ABB6" stroke="#9AA1AC" stroke-width="2px"/><text text-anchor="middle" pointer-events="none" font-family="sans-serif" dy="0.3125" font-size="5" fill="#FFFFFF"/><text text-anchor="middle" pointer-events="none" y="5" font-size="10px" fill="#FFFFFF" font-family="sans-serif"/></g></g></svg>