<svg xmlns="http://www.w3.org/2000/svg" width="46.01853942871094" height="214.8985595703125" viewBox="76.99073028564453 -7.449275970458984 46.01853942871094 214.8985595703125"><title>Neo4j Graph Visualization</title><desc>Created using Neo4j (http://www.neo4j.com/)</desc><g class="layer relationships"><g class="relationship" transform="translate(100 136.37589768925216) rotate(270)"><path class="outline" fill="#6DCE9E" stroke="none" d="M 4.700219608894081,1.7770581386571378 L 4.959038653996602,0.8111323123680696 A 118.22549531011941 118.22549531011941 0 0 0 21.053022159215438,3.9463872575492758 L 20.930332664367732,4.938832363262435 A 119.22549531011941 119.22549531011941 0 0 1 4.700219608894081,1.7770581386571378 Z M 44.78125289518721,5.482282575329847 L 44.703893565169224,4.485279298475064 A 118.22549531011941 118.22549531011941 0 0 0 60.92397599681766,2.0863098222066743 L 60.28030956581615,-0.8438255885895196 L 67.86823636050903,1.0727773850025173 L 61.782197904819675,5.9931570366016 L 61.13853147381816,3.0630216258054057 A 119.22549531011941 119.22549531011941 0 0 1 44.78125289518721,5.482282575329847"/><text text-anchor="middle" pointer-events="none" font-size="8px" fill="#000000" x="32.853555182654226" y="8.308761038473406" font-family="sans-serif">2791</text></g><g class="relationship" transform="translate(100 136.37589768925216) rotate(360)"><path class="outline" fill="#6DCE9E" stroke="none" d="M 1.777058138657138 4.700219608894081 L 12.129819942757969 43.33725266045681 A 12.557713659400521 12.557713659400521 0 1 1 -12.129819942757969 43.33725266045681 L -3.588791454374783 11.461700392917558 L 0.27491185078149 12.496976573327641 L -1.294095225512604 4.8296291314453415 L -6.486568933241988 10.685243257609997 L -2.622865628085715 11.720519438020078 L -11.1638941164689 43.59607170555933 A 11.557713659400521 11.557713659400521 0 1 0 11.1638941164689 43.59607170555933 L 0.8111323123680697 4.959038653996601 Z"/><text text-anchor="middle" pointer-events="none" font-size="8px" fill="#000000" x="0" y="68.14514177785426" font-family="sans-serif">105</text></g><g class="relationship" transform="translate(100 63.624102310749464) rotate(450)"><path class="outline" fill="#6DCE9E" stroke="none" d="M 4.700219608894081,1.7770581386571378 L 4.959038653996602,0.8111323123680696 A 118.22549531011941 118.22549531011941 0 0 0 23.253944488713547,4.197561562393162 L 23.149871302672366,5.192131203970476 A 119.22549531011941 119.22549531011941 0 0 1 4.700219608894081,1.7770581386571378 Z M 42.5524807078484,5.634225349347673 L 42.49381513273193,4.635947657372014 A 118.22549531011941 118.22549531011941 0 0 0 60.92397599681766,2.0863098222066743 L 60.28030956581615,-0.8438255885895196 L 67.86823636050903,1.0727773850025173 L 61.782197904819675,5.9931570366016 L 61.13853147381816,3.0630216258054057 A 119.22549531011941 119.22549531011941 0 0 1 42.5524807078484,5.634225349347673"/><text text-anchor="middle" pointer-events="none" font-size="8px" fill="#000000" x="32.853555182654226" y="8.308761038473406" font-family="sans-serif">195</text></g><g class="relationship" transform="translate(100 63.624102310749464) rotate(180)"><path class="outline" fill="#6DCE9E" stroke="none" d="M 1.777058138657138 4.700219608894081 L 12.129819942757969 43.33725266045681 A 12.557713659400521 12.557713659400521 0 1 1 -12.129819942757969 43.33725266045681 L -3.588791454374783 11.461700392917558 L 0.27491185078149 12.496976573327641 L -1.294095225512604 4.8296291314453415 L -6.486568933241988 10.685243257609997 L -2.622865628085715 11.720519438020078 L -11.1638941164689 43.59607170555933 A 11.557713659400521 11.557713659400521 0 1 0 11.1638941164689 43.59607170555933 L 0.8111323123680697 4.959038653996601 Z"/><text text-anchor="middle" pointer-events="none" font-size="8px" fill="#000000" x="0" y="68.14514177785426" transform="rotate(180 0 65.14514177785426)" font-family="sans-serif">98</text></g></g><g class="layer nodes"><g class="node" transform="translate(100,136.37589768925216)"><circle class="outline" cx="0" cy="0" r="5" fill="#A5ABB6" stroke="#9AA1AC" stroke-width="2px"/><text text-anchor="middle" pointer-events="none" font-family="sans-serif" dy="0.3125" font-size="5" fill="#FFFFFF"/><text text-anchor="middle" pointer-events="none" y="5" font-size="10px" fill="#FFFFFF" font-family="sans-serif"/></g><g class="node" transform="translate(100,63.624102310749464)"><circle class="outline" cx="0" cy="0" r="5" fill="#A5ABB6" stroke="#9AA1AC" stroke-width="2px"/><text text-anchor="middle" pointer-events="none" font-family="sans-serif" dy="0.3125" font-size="5" fill="#FFFFFF"/><text text-anchor="middle" pointer-events="none" y="5" font-size="10px" fill="#FFFFFF" font-family="sans-serif"/></g></g></svg>